<svg class="icon" viewBox="0 0 1024 1024" xmlns="http://www.w3.org/2000/svg" width="128" height="128"><defs><style/></defs><path d="M876.587 222.933l-59.094-71.68C805.547 137.173 787.84 128 768 128H256c-19.84 0-37.547 9.173-49.28 23.253l-59.093 71.68C135.253 237.867 128 256.64 128 277.333v533.334C128 857.813 166.187 896 213.333 896h597.334C857.813 896 896 857.813 896 810.667V277.333c0-20.693-7.253-39.466-19.413-54.4zM512 746.667L277.333 512h149.334v-85.333h170.666V512h149.334L512 746.667zM218.667 213.333l34.773-42.666h512l39.893 42.666H218.667z"/></svg>