<svg class="icon" viewBox="0 0 1024 1024" xmlns="http://www.w3.org/2000/svg" width="128" height="128"><defs><style/></defs><path d="M560 682.2l-2.4.2c-7.2.8-14 4-19.2 9L409.2 820.6c-27.4 27.4-64 42.4-103 42.4s-75.6-15-103-42.4c-27.4-27.4-42.4-64-42.4-103s15-75.6 42.4-103l137.2-137.2c7-7 14.6-13.2 22.8-18.6 9.2-6 19.2-11.2 29.6-15 9.6-3.6 19.8-6 30-7.4 6.8-1 13.8-1.4 20.4-1.4 2.8 0 5.6.2 9.2.4 35.4 2.2 68.8 17.2 93.6 42 15.4 15.4 27.2 34.2 34.2 54.6 5.6 16 22.4 25 38.6 20.2.2 0 .4-.2.6-.2.2 0 .4 0 .4-.2 16.2-5 25.6-22 21-38.2-8.8-31.2-24.4-57.4-49.2-82-31.2-31.2-71.8-51.6-115.2-58.6-3.8-.6-7.6-1.2-11.4-1.6-7.4-.8-14.8-1.2-22.2-1.2-5.2 0-10.4.2-15.4.6-10.8.8-21.6 2.4-32.4 5-2.2.4-4.2 1-6.4 1.6-13.4 3.6-26.6 8.4-39 14.6-20.6 10.2-39.2 23.4-55.4 39.8L157 569c-39.2 39.8-61 92.6-61 149 0 56.4 21.8 109.2 61.4 148.8C197 906.2 249.8 928 306 928c56.4 0 109.2-21.8 148.8-61.4L585.4 736c20.8-21 4-56.6-25.4-53.8z"/><path d="M866.6 157.4C827 117.8 774.2 96 718 96s-109.2 21.8-148.8 61.4L441.8 284.8c-19.4 19.4-7.2 52.6 20.2 54.8 9.4.8 18.6-2.6 25.4-9.2L615 203.2c27.4-27.4 64-42.4 103-42.4s75.6 15 103 42.4c27.4 27.4 42.4 64 42.4 103s-15 75.6-42.4 103L683.8 546.4c-7 7-14.6 13.2-22.8 18.6-9.2 6-19.2 11.2-29.6 15-9.6 3.6-19.8 6-30 7.4-6.8 1-13.8 1.4-20.4 1.4-2.8 0-5.8-.2-9.2-.4-35.4-2.2-68.8-17.2-93.6-42-14.6-14.6-25.6-32-32.8-51-5.8-15.4-22.2-23.8-38.2-19.6-17.8 4.6-28.2 23.4-22.6 41 9 28 24.2 51.8 47.4 75l.4.4c33.8 33.8 78.8 55.2 126.6 60.2 7.4.8 14.8 1.2 22.2 1.2 5.2 0 10.4-.2 15.6-.6 13-1 26-3.2 38.6-6.4 13.4-3.6 26.6-8.4 39-14.6 20.6-10.2 39.2-23.4 55.4-39.8L867 455c39.6-39.6 61.4-92.4 61.4-148.8S906.2 197 866.6 157.4z"/></svg>