<svg class="icon" viewBox="0 0 1024 1024" xmlns="http://www.w3.org/2000/svg" width="128" height="128"><defs><style/></defs><path d="M882.2 262.2l-89.8 90.2c-1.8 1.8-4.6 2.6-7 2.2l-92.8-16.8c-3.2-.6-5.8-3.2-6.4-6.4l-16.6-92.8c-.4-2.6.4-5.2 2.2-7l89.6-90c7-7 6-18.6-2-24.2C739.2 103 715.2 96 695.8 96c-1.4 0-2.8 0-4 .2-25 1.4-78.6 15.4-120 59.4-40.2 42.4-82.2 121.2-45 209 4.4 10.6 9.4 24.6-5.4 39.4C506.2 418.8 122 780.6 122 780.6c-36 31-33.4 88.4-.2 121.8 17 16.8 40 25.6 62.6 25.6 22.2 0 43.8-8.4 59.2-26.2 0 0 358.8-382.2 376.4-399.6 8-7.8 15.4-10.2 22.2-10.2 6.6 0 12.6 2.4 17.2 4.8 19.8 10.2 42 14.8 64.8 14.8 53.6 0 110-24.8 144.4-59.2 48.8-48.8 57.8-96 59.2-120.2 1.2-19.8-4.4-45.2-21.4-68.4-5.8-7.6-17.2-8.4-24.2-1.6zM205 858.6c-11 10.8-28.8 10.8-39.8 0-10.8-11-10.8-28.8 0-39.8 11-10.8 28.8-10.8 39.8 0 10.8 11.2 10.8 29 0 39.8z"/></svg>